<?xml version="1.0"?>
<svg xmlns="http://www.w3.org/2000/svg" xmlns:xlink="http://www.w3.org/1999/xlink" xmlns:svgjs="http://svgjs.com/svgjs" version="1.1" width="512" height="512" x="0" y="0" viewBox="0 0 512 512" style="enable-background:new 0 0 512 512" xml:space="preserve" class=""><g><g xmlns="http://www.w3.org/2000/svg"><path d="m504.5 218.5h-30.69c-2.271-13.271-5.76-26.322-10.41-38.94l26.559-15.334c3.587-2.071 4.816-6.658 2.745-10.245l-30-51.961c-2.072-3.588-6.66-4.815-10.245-2.745l-26.604 15.359c-8.609-10.332-18.155-19.878-28.487-28.487l15.36-26.604c.994-1.723 1.265-3.77.749-5.691-.515-1.921-1.771-3.56-3.494-4.554l-51.962-30c-3.59-2.071-8.176-.843-10.245 2.745l-15.336 26.558c-12.617-4.65-25.667-8.139-38.94-10.41v-30.691c0-4.143-3.357-7.5-7.5-7.5h-60c-4.143 0-7.5 3.357-7.5 7.5v30.69c-13.272 2.271-26.322 5.76-38.94 10.41l-15.333-26.558c-.994-1.723-2.633-2.979-4.554-3.494-1.919-.516-3.968-.246-5.691.749l-51.962 30c-1.723.994-2.979 2.633-3.494 4.554-.516 1.922-.246 3.969.749 5.691l15.359 26.604c-10.332 8.61-19.88 18.158-28.486 28.487l-26.605-15.359c-3.589-2.071-8.176-.843-10.245 2.745l-30 51.961c-2.071 3.587-.842 8.174 2.745 10.245l26.558 15.334c-4.65 12.618-8.139 25.668-10.41 38.94h-30.691c-4.143 0-7.5 3.357-7.5 7.5v60c0 4.143 3.357 7.5 7.5 7.5h30.69c2.271 13.272 5.76 26.322 10.41 38.94l-26.558 15.334c-3.587 2.071-4.816 6.658-2.745 10.245l30 51.961c2.07 3.588 6.659 4.814 10.245 2.745l26.604-15.359c8.606 10.329 18.154 19.877 28.486 28.487l-15.359 26.604c-.995 1.723-1.265 3.77-.749 5.691.515 1.921 1.771 3.56 3.494 4.554l51.962 30c1.724.995 3.771 1.266 5.691.749 1.921-.515 3.56-1.771 4.554-3.494l15.333-26.558c12.618 4.65 25.668 8.139 38.94 10.41v30.69c0 4.143 3.357 7.5 7.5 7.5h60c4.143 0 7.5-3.357 7.5-7.5v-30.69c13.273-2.271 26.323-5.76 38.94-10.41l15.334 26.558c2.072 3.588 6.659 4.814 10.245 2.745l51.962-30c1.723-.994 2.979-2.633 3.494-4.554.516-1.922.245-3.969-.749-5.691l-15.36-26.604c10.332-8.609 19.878-18.155 28.487-28.487l26.604 15.359c3.587 2.069 8.174.843 10.245-2.745l30-51.961c2.071-3.587.842-8.174-2.745-10.245l-26.559-15.334c4.65-12.618 8.139-25.669 10.41-38.94h30.69c4.143 0 7.5-3.357 7.5-7.5v-60c.004-4.142-3.353-7.499-7.496-7.499zm-7.5 60h-29.611c-3.738 0-6.906 2.753-7.427 6.455-2.313 16.45-6.628 32.59-12.824 47.971-1.396 3.466-.028 7.43 3.207 9.298l25.618 14.791-22.5 38.971-25.66-14.814c-3.235-1.868-7.346-1.071-9.65 1.865-10.244 13.058-22.059 24.872-35.116 35.116-2.937 2.304-3.731 6.418-1.865 9.65l14.815 25.659-38.972 22.5-14.791-25.618c-1.867-3.235-5.831-4.603-9.298-3.207-15.379 6.196-31.519 10.511-47.971 12.825-3.702.521-6.455 3.688-6.455 7.427v29.611h-45v-29.611c0-3.738-2.753-6.906-6.455-7.427-16.451-2.313-32.591-6.629-47.971-12.825-3.468-1.396-7.43-.029-9.298 3.207l-14.79 25.618-38.972-22.5 14.814-25.659c1.866-3.232 1.071-7.347-1.865-9.65-13.06-10.247-24.874-22.062-35.114-35.115-2.305-2.938-6.421-3.731-9.651-1.866l-25.66 14.814-22.5-38.971 25.618-14.791c3.235-1.868 4.603-5.832 3.207-9.298-6.196-15.38-10.512-31.52-12.825-47.971-.521-3.702-3.688-6.455-7.427-6.455h-29.611v-45h29.611c3.738 0 6.906-2.753 7.427-6.455 2.313-16.451 6.629-32.591 12.825-47.971 1.396-3.466.028-7.43-3.207-9.298l-25.618-14.791 22.5-38.971 25.66 14.814c3.232 1.866 7.346 1.073 9.651-1.866 10.24-13.054 22.055-24.868 35.114-35.115 2.937-2.304 3.731-6.418 1.865-9.65l-14.814-25.659 38.972-22.5 14.79 25.618c1.867 3.235 5.832 4.604 9.298 3.207 15.38-6.196 31.52-10.512 47.971-12.825 3.702-.521 6.455-3.688 6.455-7.427v-29.611h45v29.611c0 3.738 2.753 6.906 6.455 7.427 16.452 2.314 32.592 6.629 47.971 12.825 3.462 1.395 7.43.028 9.298-3.207l14.791-25.618 38.972 22.5-14.815 25.659c-1.866 3.232-1.071 7.347 1.865 9.65 13.058 10.244 24.872 22.059 35.116 35.116 2.304 2.937 6.417 3.731 9.65 1.865l25.66-14.814 22.5 38.971-25.618 14.791c-3.235 1.868-4.603 5.832-3.207 9.298 6.196 15.381 10.511 31.521 12.824 47.971.521 3.702 3.688 6.455 7.427 6.455h29.611z" fill="#364b9c" data-original="#000000" style="" class=""/><path d="m368.112 113.486c-44.01-34.665-101.259-46.839-157.074-33.391-31.741 7.646-60.762 23.943-83.926 47.129-23.162 23.185-39.433 52.221-47.054 83.97-8.903 37.086-6.676 74.892 6.442 109.33 1.14 2.992 3.987 4.832 7.01 4.832.888 0 1.79-.158 2.669-.493 3.871-1.475 5.813-5.808 4.339-9.679-12.038-31.604-14.069-66.352-5.874-100.488 6.976-29.062 21.872-55.643 43.079-76.87 21.209-21.229 47.775-36.149 76.828-43.148 51.313-12.36 103.904-1.211 144.278 30.592 40.349 31.783 63.489 79.433 63.489 130.73 0 5.721-.293 11.488-.872 17.143-.422 4.121 2.576 7.803 6.697 8.225 4.122.422 7.803-2.578 8.225-6.697.631-6.159.95-12.44.95-18.67.001-55.925-25.223-107.869-69.206-142.515z" fill="#364b9c" data-original="#000000" style="" class=""/><path d="m424.232 300.527c-3.962-1.234-8.159.979-9.389 4.934-10.311 33.147-31.383 62.915-59.337 83.82-28.9 21.613-63.31 33.038-99.507 33.038-57.815 0-110.617-29.33-141.244-78.457-2.191-3.514-6.816-4.589-10.332-2.396-3.515 2.191-4.588 6.817-2.396 10.332 15.995 25.657 38.34 47.101 64.62 62.011 27.107 15.381 58.005 23.511 89.353 23.511 39.461 0 76.977-12.458 108.49-36.025 30.466-22.784 53.435-55.236 64.676-91.378 1.23-3.956-.978-8.16-4.934-9.39z" fill="#364b9c" data-original="#000000" style="" class=""/><path d="m147.811 165.873c-3.318-2.481-8.017-1.802-10.498 1.516-27.568 36.869-36.244 84.251-23.802 129.996 13.279 48.822 51.796 87.502 100.52 100.944 13.975 3.855 28.042 5.742 41.897 5.741 38.703-.002 75.688-14.731 103.861-42.409 38.244-37.571 52.937-91.691 39.302-144.774-13.014-50.664-52.47-90.405-102.971-103.715-46.9-12.361-95.02-2.639-132.019 26.671-3.247 2.572-3.794 7.289-1.222 10.536s7.289 3.795 10.536 1.222c33.262-26.35 76.593-35.069 118.882-23.925 45.249 11.926 80.603 47.54 92.264 92.943 12.288 47.839-.902 96.564-35.284 130.341-8.538 8.388-17.98 15.451-28.082 21.129v-137.895l14.008 9.78c1.308.913 2.804 1.352 4.286 1.352 2.368 0 4.698-1.119 6.156-3.208 2.371-3.396 1.54-8.071-1.856-10.442l-83.096-58.013c-2.578-1.801-6.008-1.801-8.586 0l-83.096 58.013c-3.396 2.371-4.228 7.047-1.856 10.442 2.37 3.396 7.047 4.229 10.442 1.856l14.008-9.78v139.087c-30.848-16.564-54.249-45.379-63.62-79.834-11.223-41.258-3.444-83.931 21.341-117.076 2.481-3.317 1.802-8.017-1.515-10.498zm58.794 57.85 49.795-34.765 49.795 34.765v155.589c-27.213 11.039-57.95 12.895-88.175 4.559-3.881-1.071-7.688-2.321-11.415-3.74z" fill="#364b9c" data-original="#000000" style="" class=""/><path d="m238.806 337.375h35.189c4.143 0 7.5-3.357 7.5-7.5v-76.188c0-4.143-3.357-7.5-7.5-7.5h-35.189c-4.143 0-7.5 3.357-7.5 7.5v76.188c0 4.143 3.357 7.5 7.5 7.5zm7.5-15v-31.188h20.189v31.188zm20.189-61.188v15h-20.189v-15z" fill="#364b9c" data-original="#000000" style="" class=""/></g><input id="_w_tusk"/><script/></g></svg>
